<svg width="45" height="45" viewBox="0 0 45 45" fill="none" xmlns="http://www.w3.org/2000/svg">
<path d="M22.5022 6.53311e-05C13.4011 -0.00157365 5.19548 5.4805 1.71269 13.8891C-1.76945 22.2981 0.156658 31.9766 6.59417 38.4103C15.3803 47.1966 29.6248 47.1966 38.4106 
38.4103C47.1965 29.6247 47.1965 15.38 38.4106 6.5937C34.2008 2.35987 28.4726 -0.0143577 22.5022 6.53311e-05ZM22.5022 42.9109C11.2514 42.9109 2.09391 33.753 2.09391 
22.502C2.09391 11.251 11.2514 2.09337 22.5022 2.09337C33.753 2.09337 42.9109 11.251 42.9109 22.502C42.9109 33.753 33.753 42.9109 22.5022 42.9109Z" fill="#FFFEFE"/>
<path d="M26.7188 24L27.1562 21.125H24.375V19.25C24.375 18.4375 24.75 17.6875 26 17.6875H27.2812V15.2188C27.2812 15.2188 26.125 15 25.0312 15C22.75 15 21.25 16.4062 
21.25 18.9062V21.125H18.6875V24H21.25V31H24.375V24H26.7188Z" fill="#FFFEFE"/>
</svg>
