<svg width="45" height="45" viewBox="0 0 45 45" fill="none" xmlns="http://www.w3.org/2000/svg">
<path d="M23 19.4062C21 19.4062 19.4062 21.0312 19.4062 23C19.4062 25 21 26.5938 23 26.5938C24.9688 26.5938 26.5938 25 26.5938 23C26.5938 21.0312 24.9688 19.4062 23 19.4062ZM23 25.3438C21.7188 25.3438 20.6562 24.3125 20.6562 23C20.6562 21.7188 21.6875 20.6875 23 20.6875C24.2812 20.6875 25.3125 21.7188 25.3125 23C25.3125 24.3125 24.2812 25.3438 23 25.3438ZM27.5625 19.2812C27.5625 18.8125 27.1875 18.4375 26.7188 18.4375C26.25 18.4375 25.875 18.8125 25.875 19.2812C25.875 19.75 26.25 20.125 26.7188 20.125C27.1875 20.125 27.5625 19.75 27.5625 19.2812ZM29.9375 20.125C29.875 19 29.625 18 28.8125 17.1875C28 16.375 27 16.125 25.875 16.0625C24.7188 16 21.25 16 20.0938 16.0625C18.9688 16.125 18 16.375 17.1562 17.1875C16.3438 18 16.0938 19 16.0312 20.125C15.9688 21.2812 15.9688 24.75 16.0312 25.9062C16.0938 27.0312 16.3438 28 17.1562 28.8438C18 29.6562 18.9688 29.9062 20.0938 29.9688C21.25 30.0312 24.7188 30.0312 25.875 29.9688C27 29.9062 28 29.6562 28.8125 28.8438C29.625 28 29.875 27.0312 29.9375 25.9062C30 24.75 30 21.2812 29.9375 20.125ZM28.4375 27.125C28.2188 27.75 27.7188 28.2188 27.125 28.4688C26.1875 28.8438 24 28.75 23 28.75C21.9688 28.75 19.7812 28.8438 18.875 28.4688C18.25 28.2188 17.7812 27.75 17.5312 27.125C17.1562 26.2188 17.25 24.0312 17.25 23C17.25 22 17.1562 19.8125 17.5312 18.875C17.7812 18.2812 18.25 17.8125 18.875 17.5625C19.7812 17.1875 21.9688 17.2812 23 17.2812C24 17.2812 26.1875 17.1875 27.125 17.5625C27.7188 17.7812 28.1875 18.2812 28.4375 18.875C28.8125 19.8125 28.7188 22 28.7188 23C28.7188 24.0312 28.8125 26.2188 28.4375 27.125Z" fill="#FFFEFE"/>
<path d="M22.5022 6.53311e-05C13.4011 -0.00157365 5.19548 5.4805 1.71269 13.8891C-1.76945 22.2981 0.156658 31.9766 6.59417 38.4103C15.3803 47.1966 29.6248 47.1966 38.4106 38.4103C47.1965 29.6247 47.1965 15.38 38.4106 6.5937C34.2008 2.35987 28.4726 -0.0143577 22.5022 6.53311e-05ZM22.5022 42.9109C11.2514 42.9109 2.09391 33.753 2.09391 22.502C2.09391 11.251 11.2514 2.09337 22.5022 2.09337C33.753 2.09337 42.9109 11.251 42.9109 22.502C42.9109 33.753 33.753 42.9109 22.5022 42.9109Z" fill="#FFFEFE"/>
</svg>
