<svg width="170" height="54" viewBox="0 0 170 54" fill="none" xmlns="http://www.w3.org/2000/svg">
<rect x="34.5746" width="23.3617" height="48.6702" rx="11.6809" transform="rotate(30 34.5746 0)" fill="#3011BC"/>
<rect x="24.3351" width="23.3617" height="48.6702" rx="11.6809" transform="rotate(30 24.3351 0)" fill="#8571DB" fill-opacity="0.73"/>
<path d="M84.3424 18.4301H88.8589L83.9374 39.6113H75.9944L71.0729 18.4301H75.5895L79.2651 35.8735H80.6668L84.3424 18.4301ZM91.2027 25.8123C92.3033 24.3795 94.141 23.6631 96.716 23.6631C99.291 23.6631 101.129 24.3795 102.229 25.8123C103.33 27.2244 103.88 29.218 103.88 31.7929C103.88 37.2544 101.492 39.9851 96.716 39.9851C91.9399 39.9851 89.5518 37.2544 89.5518 31.7929C89.5518 29.218 90.1021 27.2244 91.2027 25.8123ZM94.411 35.3128C94.8471 36.0603 95.6154 36.4341 96.716 36.4341C97.8166 36.4341 98.5746 36.0603 98.9899 35.3128C99.426 34.5652 99.644 33.3919 99.644 31.7929C99.644 30.194 99.426 29.0311 98.9899 28.3043C98.5746 27.5775 97.8166 27.2141 96.716 27.2141C95.6154 27.2141 94.8471 27.5775 94.411 28.3043C93.9957 29.0311 93.788 30.194 93.788 31.7929C93.788 33.3919 93.9957 34.5652 94.411 35.3128ZM105.233 24.0369H109.345L112.18 36.0603H112.896L115.731 24.0369H119.842L114.36 46.1526H110.279L111.993 39.6113H109.065L105.233 24.0369ZM133.927 28.8961V35.3751C133.969 35.8735 134.052 36.2265 134.177 36.4341C134.301 36.621 134.561 36.756 134.955 36.8391L134.831 39.9851C133.772 39.9851 132.92 39.9124 132.276 39.7671C131.653 39.6217 131.02 39.331 130.376 38.8949C128.881 39.6217 127.355 39.9851 125.797 39.9851C122.579 39.9851 120.969 38.2823 120.969 34.8767C120.969 33.2154 121.416 32.0421 122.309 31.3569C123.202 30.6508 124.572 30.2355 126.42 30.1109L129.753 29.8617V28.8961C129.753 28.2523 129.608 27.8163 129.317 27.5878C129.027 27.3386 128.559 27.2141 127.916 27.2141L122.06 27.4632L121.935 24.5664C124.157 23.9642 126.265 23.6631 128.258 23.6631C130.273 23.6631 131.716 24.0784 132.588 24.909C133.481 25.7397 133.927 27.0687 133.927 28.8961ZM126.919 33.0078C125.756 33.1116 125.174 33.7346 125.174 34.8767C125.174 36.0188 125.683 36.5899 126.701 36.5899C127.49 36.5899 128.352 36.4653 129.286 36.2161L129.753 36.0915V32.7586L126.919 33.0078ZM152.017 41.5426C152.017 43.3284 151.332 44.6471 149.961 45.4985C148.59 46.3499 146.732 46.7756 144.385 46.7756C142.06 46.7756 140.263 46.4641 138.997 45.8411C137.751 45.2181 137.128 44.0864 137.128 42.4459C137.128 41.1376 137.875 39.9021 139.37 38.7392C138.602 38.22 138.218 37.4309 138.218 36.3718C138.218 35.9565 138.529 35.2712 139.152 34.316L139.433 33.8799C138.021 32.8624 137.315 31.3672 137.315 29.3945C137.315 27.4009 137.906 25.9577 139.09 25.0648C140.294 24.1718 141.883 23.7254 143.856 23.7254C144.749 23.7254 145.631 23.8292 146.503 24.0369L147.002 24.1303L152.017 23.9746V27.3075L149.681 27.1206C150.138 27.8266 150.366 28.5327 150.366 29.2387C150.366 31.3153 149.836 32.7482 148.777 33.5373C147.718 34.3264 146.057 34.7209 143.794 34.7209C143.316 34.7209 142.89 34.6794 142.516 34.5963C142.309 35.1363 142.205 35.5827 142.205 35.9358C142.205 36.268 142.381 36.4964 142.734 36.621C143.087 36.7456 143.918 36.8183 145.226 36.8391C147.843 36.8598 149.629 37.2129 150.584 37.8981C151.539 38.5626 152.017 39.7775 152.017 41.5426ZM141.239 42.0098C141.239 42.9027 142.33 43.3492 144.51 43.3492C146.711 43.3492 147.812 42.8301 147.812 41.7918C147.812 41.2311 147.625 40.8677 147.251 40.7015C146.877 40.5562 146.088 40.4731 144.884 40.4523L142.08 40.2343C141.52 40.795 141.239 41.3868 141.239 42.0098ZM141.488 29.2699C141.488 30.7858 142.278 31.5438 143.856 31.5438C145.455 31.5438 146.254 30.7858 146.254 29.2699C146.254 27.7332 145.455 26.9649 143.856 26.9649C142.278 26.9649 141.488 27.7332 141.488 29.2699ZM157.972 33.5996C157.993 34.5548 158.242 35.2505 158.719 35.6866C159.218 36.1019 159.924 36.3095 160.838 36.3095C162.769 36.3095 164.492 36.2472 166.008 36.1226L166.88 36.0292L166.943 39.1129C164.555 39.6944 162.395 39.9851 160.464 39.9851C158.117 39.9851 156.414 39.3621 155.355 38.1162C154.296 36.8702 153.767 34.8455 153.767 32.0421C153.767 26.4561 156.061 23.6631 160.651 23.6631C165.178 23.6631 167.441 26.0096 167.441 30.7027L167.13 33.5996H157.972ZM163.329 30.4224C163.329 29.1764 163.132 28.3146 162.738 27.837C162.343 27.3386 161.647 27.0895 160.651 27.0895C159.675 27.0895 158.979 27.349 158.564 27.8682C158.169 28.3666 157.961 29.218 157.941 30.4224H163.329Z" fill="#3011BC"/>
</svg>
