<svg width="40" height="29" viewBox="0 0 40 29" fill="none" xmlns="http://www.w3.org/2000/svg">
<path d="M29.516 11.957C41.4527 3.27618 40.1564 0.904401 39.376 0.348793C38.5957 -0.206814 35.1875 -1.18464 22.9956 7.31434L8.51752 3.1904C8.08907 3.06825 7.59914 3.13983 7.27198 3.37277L4.00379 5.69974C3.4661 6.08257 3.58096 6.72572 4.25993 7.00127L16.7472 11.9405C13.8866 14.1771 11.2759 16.3814 9.27321 18.2573H3.18648C2.88012 18.2573 2.58631 18.344 2.3697 18.4982L0.735606 19.6617C0.452356 19.8634 0.336653 20.1548 0.428399 20.4327C0.519375 20.7088 0.8074 20.9331 1.18717 21.0241L5.72085 22.1001C5.15913 22.9295 4.86232 23.7635 5.63789 24.3157C6.41345 24.8679 7.58473 24.6566 8.7497 24.2566L10.2609 27.4846C10.3866 27.7531 10.7006 27.96 11.0915 28.0249C11.4817 28.0902 11.891 28.0078 12.1743 27.8062L13.8084 26.6427C14.025 26.4884 14.1467 26.2793 14.1467 26.0611V21.7273C16.7814 20.3013 19.8772 18.4425 23.0186 16.4058L29.9556 25.2968C30.3507 25.7885 31.2551 25.8554 31.7835 25.4792L35.0518 23.1522C35.379 22.9193 35.4795 22.5705 35.3079 22.2654L29.516 11.957Z" fill="#FFFEFE"/>
</svg>
