<svg width="40" height="29" viewBox="0 0 40 29" fill="none" xmlns="http://www.w3.org/2000/svg">
<path d="M20.1243 0C9.24652 0 0.397522 6.2906 0.397522 14.0234C0.397522 21.7563 9.24652 28.0469 20.1243 28.0469C31.0021 28.0469 39.8511 21.7563 39.8511 14.0234C39.8511 6.2906 31.0021 0 20.1243 0ZM29.5061 21.277C29.1855 21.5048 28.7647 21.6195 28.3439 21.6195C27.9231 21.6195 27.502 21.5048 27.1817 21.277L18.9621 15.434C18.653 15.2155 18.4805 14.9185 18.4805 14.6078V7.01172C18.4805 6.3655 19.2168 5.84317 20.1243 5.84317C21.0318 5.84317 21.7681 6.3655 21.7681 7.01172V14.124L29.5061 19.6246C30.1487 20.0817 30.1487 20.8201 29.5061 21.277Z" fill="#FFFEFE"/>
</svg>
