<svg width="52" height="37" viewBox="0 0 52 37" fill="none" xmlns="http://www.w3.org/2000/svg">
<path d="M26.6179 7.54805C26.1514 7.21933 25.3946 7.21933 24.9273 7.54805C24.4605 7.87651 24.4605 8.40965 24.9273 8.73837L33.9814 15.1134H14.3604C13.6982 15.1134 13.1611 15.4915 13.1611 15.9578C13.1611 16.4243 13.6982 16.8022 14.3604 16.8022H33.9694L24.9153 23.1772C24.6907 23.3348 24.5645 23.5493 24.5645 23.7725C24.5645 23.9959 24.6907 24.2099 24.9153 24.3678C25.1399 24.5272 25.4475 24.6156 25.7668 24.6127C26.0849 24.6116 26.3903 24.5238 26.6179 24.3678L37.7107 16.5576C37.9364 16.3984 38.0623 16.1823 38.0589 15.9578C38.0566 15.7338 37.9319 15.5196 37.7107 15.3585L26.6179 7.54805Z" fill="#FFFEFE"/>
<path d="M25.7838 5.27073e-05C15.3554 -0.00126957 5.95315 4.42151 1.96245 11.2054C-2.02749 17.9895 0.179504 25.7978 7.55581 30.9883C17.6233 38.0768 33.9451 38.0768 44.0122 30.9883C54.0793 23.9003 54.0793 12.4081 44.0122 5.3196C39.1884 1.90388 32.6249 -0.0115834 25.7838 5.27073e-05ZM25.7838 34.6193C12.8923 34.6193 2.39927 27.2309 2.39927 18.154C2.39927 9.07701 12.8923 1.68887 25.7838 1.68887C38.6754 1.68887 49.1687 9.07701 49.1687 18.154C49.1687 27.2309 38.6754 34.6193 25.7838 34.6193Z" fill="#FFFEFE"/>
</svg>
