<svg width="52" height="56" viewBox="0 0 52 56" fill="none" xmlns="http://www.w3.org/2000/svg">
<path d="M26.0025 8.1301e-05C15.4856 -0.00195832 6.00355 6.82018 1.97899 17.2843C-2.04482 27.7488 0.180905 39.7931 7.61982 47.7995C17.7727 58.7335 34.2331 58.7335 44.3856 47.7995C54.5381 36.8663 54.5381 19.1395 44.3856 8.20549C39.5209 2.93673 32.9017 -0.0178674 26.0025 8.1301e-05ZM26.0025 53.4003C13.0016 53.4003 2.41951 42.0037 2.41951 28.0025C2.41951 14.0013 13.0016 2.60509 26.0025 2.60509C39.0035 2.60509 49.5859 14.0013 49.5859 28.0025C49.5859 42.0037 39.0035 53.4003 26.0025 53.4003Z" fill="#FFFEFE"/>
<path d="M27.4568 19.2465C26.9903 18.9178 26.2335 18.9178 25.7663 19.2465C25.2994 19.575 25.2994 20.1081 25.7663 20.4369L34.8203 26.8119H15.1994C14.5372 26.8119 14.0001 27.19 14.0001 27.6563C14.0001 28.1228 14.5372 28.5007 15.1994 28.5007H34.8083L25.7542 34.8757C25.5296 35.0333 25.4034 35.2478 25.4034 35.471C25.4034 35.6944 25.5296 35.9084 25.7542 36.0663C25.9788 36.2257 26.2865 36.3141 26.6057 36.3111C26.9238 36.3101 27.2292 36.2223 27.4568 36.0663L38.5496 28.2561C38.7753 28.0969 38.9011 27.8808 38.8978 27.6563C38.8955 27.4323 38.7708 27.2181 38.5496 27.057L27.4568 19.2465Z" fill="#FFFEFE"/>
</svg>
