<svg width="45" height="45" viewBox="0 0 45 45" fill="none" xmlns="http://www.w3.org/2000/svg">
<path d="M22.5022 6.53311e-05C13.4011 -0.00157365 5.19548 5.4805 1.71269 13.8891C-1.76945 22.2981 0.156658 31.9766 6.59417 38.4103C15.3803 47.1966 29.6248 47.1966 38.4106 38.4103C47.1965 29.6247 47.1965 15.38 38.4106 6.5937C34.2008 2.35987 28.4726 -0.0143577 22.5022 6.53311e-05ZM22.5022 42.9109C11.2514 42.9109 2.09391 33.753 2.09391 22.502C2.09391 11.251 11.2514 2.09337 22.5022 2.09337C33.753 2.09337 42.9109 11.251 42.9109 22.502C42.9109 33.753 33.753 42.9109 22.5022 42.9109Z" fill="#FFFEFE"/>
<path d="M29.3438 19.75C29.9688 19.2812 30.5312 18.7188 30.9688 18.0625C30.4062 18.3125 29.75 18.5 29.0938 18.5625C29.7812 18.1562 30.2812 17.5312 30.5312 16.75C29.9062 17.125 29.1875 17.4062 28.4688 17.5625C27.8438 16.9062 27 16.5312 26.0625 16.5312C24.25 16.5312 22.7812 18 22.7812 19.8125C22.7812 20.0625 22.8125 20.3125 22.875 20.5625C20.1562 20.4062 17.7188 19.0938 16.0938 17.125C15.8125 17.5938 15.6562 18.1562 15.6562 18.7812C15.6562 19.9062 16.2188 20.9062 17.125 21.5C16.5938 21.4688 16.0625 21.3438 15.625 21.0938V21.125C15.625 22.7188 16.75 24.0312 18.25 24.3438C18 24.4062 17.6875 24.4688 17.4062 24.4688C17.1875 24.4688 17 24.4375 16.7812 24.4062C17.1875 25.7188 18.4062 26.6562 19.8438 26.6875C18.7188 27.5625 17.3125 28.0938 15.7812 28.0938C15.5 28.0938 15.25 28.0625 15 28.0312C16.4375 28.9688 18.1562 29.5 20.0312 29.5C26.0625 29.5 29.3438 24.5312 29.3438 20.1875C29.3438 20.0312 29.3438 19.9062 29.3438 19.75Z" fill="#FFFEFE"/>
</svg>
